# xmcd
#
# Track frame offsets: 
#        150
#        10597
#        33224
#        57286
#        74468
#        94810
#        115279
#        118906
#        138126
#        156985
#
# Disc length: 2528 seconds
#
# Revision: 7
# Processed by: cddbd v1.4PL0 Copyright (c) Steve Scherf et al.
# Submitted via: ExactAudioCopy v0.95a4
#
DISCID=8209de0a
DTITLE=Coldplay - Parachutes
DYEAR=2000
DGENRE=Rock
TTITLE0=Don't Panic
TTITLE1=Shiver
TTITLE2=Spies
TTITLE3=Sparks
TTITLE4=Yellow
TTITLE5=Trouble
TTITLE6=Parachutes
TTITLE7=High Speed
TTITLE8=We Never Change
TTITLE9=Everything's Not Lost
EXTD=
EXTT0=
EXTT1=
EXTT2=
EXTT3=
EXTT4=
EXTT5=
EXTT6=
EXTT7=
EXTT8=
EXTT9=
PLAYORDER=
